# xmcd
#
# Track frame offsets:
#	150
#	9425
#	32214
#	48748
#	74626
#	103186
#	120413
#	144846
#	165402
#	185666
#	207358
#	227719
#	247589
#	270661
#
# Disc length: 3856 seconds
#
# Revision: 0
# Processed by: cddbd v1.5.2PL0 Copyright (c) Steve Scherf et al.
# Submitted via: EZCDAudioConverter 8.0.2.1
#
DISCID=bf0f0e0e
DTITLE=Various Artist - st. Phú Quang. Vol 08. 13 Chuyện Bình Thường
DYEAR=2008
DGENRE=World Pop
TTITLE0=Phú Quang - Lời giới thiệu
TTITLE1=Quang Lý - Dạ khúc
TTITLE2=Ngọc Anh - Chuyện bình thường số 1
TTITLE3=Hồng Nhung - Tình khúc 24
TTITLE4=Mỹ Hạnh - Đâu phải bởi mùa thu
TTITLE5=Hồng Nhung - Mây xưa
TTITLE6=Phú Quang - Bâng quơ
TTITLE7=Hồng Nhung - Mùa hạ còn đâu
TTITLE8=Mỹ Hạnh - Thương lắm tóc dài ơi
TTITLE9=Quang Lý - Dịu dàng ơi
TTITLE10=Ngọc Anh - Mùa thu giấu em
TTITLE11=Hồng Nhung - Khúc mưa
TTITLE12=Mỹ Hạnh - Sinh nhật đen
TTITLE13=Quang Lý - Ngày mai
EXTD=
EXTT0=
EXTT1=
EXTT2=
EXTT3=
EXTT4=
EXTT5=
EXTT6=
EXTT7=
EXTT8=
EXTT9=
EXTT10=
EXTT11=
EXTT12=
EXTT13=
PLAYORDER=
